<svg xmlns="http://www.w3.org/2000/svg" xmlns:xlink="http://www.w3.org/1999/xlink" width="80" height="16" viewBox="0 0 80 16"><defs><path id="zzoba" d="M689.1 1690.43l-2.9 2.9.69 4.1v.16a.5.5 0 0 1-.08.29.28.28 0 0 1-.24.12c-.1 0-.2-.03-.32-.1l-3.6-1.93-3.59 1.93a.67.67 0 0 1-.32.1c-.1 0-.2-.04-.25-.12a.49.49 0 0 1-.08-.3l.01-.16.7-4.1-2.92-2.89c-.13-.15-.2-.28-.2-.4 0-.2.15-.32.45-.37l4.01-.6 1.8-3.72c.1-.23.24-.34.4-.34.16 0 .29.11.39.34l1.8 3.72 4.02.6c.3.05.44.17.44.38 0 .12-.07.25-.2.39zm15.54 0l-2.9 2.9.68 4.1.01.16a.5.5 0 0 1-.08.29.28.28 0 0 1-.25.12c-.1 0-.2-.03-.32-.1l-3.6-1.93-3.58 1.93a.67.67 0 0 1-.32.1c-.12 0-.2-.04-.26-.12a.5.5 0 0 1-.08-.3l.02-.16.68-4.1-2.9-2.89c-.14-.15-.2-.28-.2-.4 0-.2.14-.32.44-.37l4.02-.6 1.8-3.72c.1-.23.23-.34.39-.34s.29.11.4.34l1.8 3.72 4 .6c.3.05.46.17.46.38 0 .12-.07.25-.21.39zm16.09 0l-2.9 2.9.68 4.1v.16a.5.5 0 0 1-.08.29.28.28 0 0 1-.24.12c-.1 0-.2-.03-.32-.1l-3.6-1.93-3.59 1.93a.67.67 0 0 1-.32.1c-.1 0-.2-.04-.25-.12a.5.5 0 0 1-.08-.3l.01-.16.7-4.1-2.92-2.89c-.13-.15-.2-.28-.2-.4 0-.2.15-.32.45-.37l4.01-.6 1.8-3.72c.1-.23.24-.34.4-.34.16 0 .29.11.39.34l1.8 3.72 4.02.6c.3.05.44.17.44.38 0 .12-.06.25-.2.39zm15.53 0l-2.9 2.9.68 4.1.01.16a.5.5 0 0 1-.08.29.28.28 0 0 1-.25.12c-.1 0-.2-.03-.32-.1l-3.59-1.93-3.6 1.93a.67.67 0 0 1-.31.1c-.11 0-.2-.04-.25-.12a.49.49 0 0 1-.09-.3l.02-.16.69-4.1-2.92-2.89c-.13-.15-.2-.28-.2-.4 0-.2.15-.32.45-.37l4.02-.6 1.8-3.72c.1-.23.23-.34.39-.34s.3.11.4.34l1.8 3.72 4 .6c.3.05.46.17.46.38 0 .12-.07.25-.21.39zm15.53 0l-2.9 2.9.69 4.1v.16a.5.5 0 0 1-.08.29.28.28 0 0 1-.24.12c-.1 0-.21-.03-.32-.1l-3.6-1.93-3.59 1.93a.67.67 0 0 1-.32.1c-.11 0-.2-.04-.25-.12a.49.49 0 0 1-.09-.3l.02-.16.69-4.1-2.91-2.89c-.14-.15-.2-.28-.2-.4 0-.2.14-.32.44-.37l4.02-.6 1.8-3.72c.1-.23.23-.34.4-.34.15 0 .28.11.38.34l1.8 3.72 4.02.6c.3.05.45.17.45.38 0 .12-.07.25-.2.39z"/></defs><g><g transform="translate(-674 -1683)"><use fill="#f7cd07" xlink:href="#zzoba"/></g></g></svg>